{"glyphs":{"\u0000":{"ha":417,"x_min":0,"x_max":0,"o":""},"\n":{"ha":0,"x_min":0,"x_max":0,"o":""},"\r":{"ha":417,"x_min":0,"x_max":0,"o":""}," ":{"ha":663,"x_min":0,"x_max":0,"o":""},"!":{"ha":628,"x_min":250,"x_max":378,"o":"m 251 274 l 251 910 q 269 955 251 936 q 314 974 288 974 l 378 974 l 378 336 q 359 292 378 310 q 314 274 340 274 l 251 274 m 253 0 l 253 122 l 375 122 l 375 64 q 356 19 375 38 q 311 0 338 0 l 253 0 z "},".":{"ha":264,"x_min":69,"x_max":193,"o":"m 71 0 l 71 122 l 192 122 l 192 64 q 173 19 192 38 q 129 0 154 0 l 71 0 z "},"?":{"ha":1426,"x_min":250,"x_max":1175,"o":"m 901 974 q 1038 937 975 974 q 1138 838 1101 900 q 1175 700 1175 775 q 1094 506 1175 586 q 901 426 1014 426 l 525 426 l 525 425 q 434 395 474 425 q 379 318 394 365 q 357 286 374 299 q 319 274 340 274 l 251 274 q 331 467 251 386 q 525 547 411 547 l 901 547 l 901 549 q 1008 593 964 549 q 1053 700 1053 638 q 1008 807 1053 763 q 901 851 964 851 l 901 853 l 353 853 q 308 871 326 853 q 290 915 290 889 l 290 974 l 892 974 q 901 974 896 974 m 251 0 l 251 122 l 372 122 l 372 64 q 353 19 372 38 q 310 0 335 0 l 251 0 z "},"A":{"ha":1603,"x_min":238,"x_max":1371,"o":"m 874 974 l 1369 0 l 657 0 l 718 122 l 1168 122 l 804 836 l 378 0 l 238 0 l 704 915 q 744 958 718 942 q 800 974 769 974 l 874 974 z "},"a":{"ha":1603,"x_min":238,"x_max":1371,"o":"m 874 974 l 1369 0 l 657 0 l 718 122 l 1168 122 l 804 836 l 378 0 l 238 0 l 704 915 q 744 958 718 942 q 800 974 769 974 l 874 974 z "},"À":{"ha":1603,"x_min":238,"x_max":1371,"o":"m 874 974 l 1369 0 l 657 0 l 718 122 l 1168 122 l 804 836 l 378 0 l 238 0 l 704 915 q 744 958 718 942 q 800 974 769 974 l 874 974 z "},"Á":{"ha":1603,"x_min":238,"x_max":1371,"o":"m 874 974 l 1369 0 l 657 0 l 718 122 l 1168 122 l 804 836 l 378 0 l 238 0 l 704 915 q 744 958 718 942 q 800 974 769 974 l 874 974 z "},"Â":{"ha":1603,"x_min":238,"x_max":1371,"o":"m 874 974 l 1369 0 l 657 0 l 718 122 l 1168 122 l 804 836 l 378 0 l 238 0 l 704 915 q 744 958 718 942 q 800 974 769 974 l 874 974 z "},"Ã":{"ha":1603,"x_min":238,"x_max":1371,"o":"m 874 974 l 1369 0 l 657 0 l 718 122 l 1168 122 l 804 836 l 378 0 l 238 0 l 704 915 q 744 958 718 942 q 800 974 769 974 l 874 974 z "},"Ä":{"ha":1603,"x_min":238,"x_max":1371,"o":"m 874 974 l 1369 0 l 657 0 l 718 122 l 1168 122 l 804 836 l 378 0 l 238 0 l 704 915 q 744 958 718 942 q 800 974 769 974 l 874 974 z "},"Å":{"ha":1603,"x_min":238,"x_max":1371,"o":"m 874 974 l 1369 0 l 657 0 l 718 122 l 1168 122 l 804 836 l 378 0 l 238 0 l 704 915 q 744 958 718 942 q 800 974 769 974 l 874 974 z "},"à":{"ha":1603,"x_min":238,"x_max":1371,"o":"m 874 974 l 1369 0 l 657 0 l 718 122 l 1168 122 l 804 836 l 378 0 l 238 0 l 704 915 q 744 958 718 942 q 800 974 769 974 l 874 974 z "},"á":{"ha":1603,"x_min":238,"x_max":1371,"o":"m 874 974 l 1369 0 l 657 0 l 718 122 l 1168 122 l 804 836 l 378 0 l 238 0 l 704 915 q 744 958 718 942 q 800 974 769 974 l 874 974 z "},"â":{"ha":1603,"x_min":238,"x_max":1371,"o":"m 874 974 l 1369 0 l 657 0 l 718 122 l 1168 122 l 804 836 l 378 0 l 238 0 l 704 915 q 744 958 718 942 q 800 974 769 974 l 874 974 z "},"ã":{"ha":1603,"x_min":238,"x_max":1371,"o":"m 874 974 l 1369 0 l 657 0 l 718 122 l 1168 122 l 804 836 l 378 0 l 238 0 l 704 915 q 744 958 718 942 q 800 974 769 974 l 874 974 z "},"ä":{"ha":1603,"x_min":238,"x_max":1371,"o":"m 874 974 l 1369 0 l 657 0 l 718 122 l 1168 122 l 804 836 l 378 0 l 238 0 l 704 915 q 744 958 718 942 q 800 974 769 974 l 874 974 z "},"å":{"ha":1603,"x_min":238,"x_max":1371,"o":"m 874 974 l 1369 0 l 657 0 l 718 122 l 1168 122 l 804 836 l 378 0 l 238 0 l 704 915 q 744 958 718 942 q 800 974 769 974 l 874 974 z "},"B":{"ha":1510,"x_min":250,"x_max":1256,"o":"m 1121 508 q 1218 410 1182 472 q 1254 274 1254 347 q 1174 79 1254 160 q 981 -1 1094 -1 l 256 0 l 251 0 l 251 58 q 269 103 251 85 q 314 122 288 122 l 981 122 l 981 121 q 1088 165 1043 121 q 1132 273 1132 210 q 1088 381 1132 336 q 981 425 1043 425 q 943 425 967 425 q 869 425 919 425 q 786 426 819 425 q 753 426 753 426 l 314 426 q 283 435 297 426 q 260 458 268 443 q 251 489 251 472 l 251 547 l 925 547 l 925 549 q 1033 593 989 549 q 1078 700 1078 638 q 1033 807 1078 763 q 925 851 989 851 l 925 853 l 314 853 q 269 871 288 853 q 251 915 251 889 l 251 974 l 917 974 q 925 974 921 974 q 1033 952 982 974 q 1119 894 1083 931 q 1178 806 1156 857 q 1200 700 1200 756 q 1121 508 1200 589 z "},"b":{"ha":1510,"x_min":250,"x_max":1256,"o":"m 1121 508 q 1218 410 1182 472 q 1254 274 1254 347 q 1174 79 1254 160 q 981 -1 1094 -1 l 256 0 l 251 0 l 251 58 q 269 103 251 85 q 314 122 288 122 l 981 122 l 981 121 q 1088 165 1043 121 q 1132 273 1132 210 q 1088 381 1132 336 q 981 425 1043 425 q 943 425 967 425 q 869 425 919 425 q 786 426 819 425 q 753 426 753 426 l 314 426 q 283 435 297 426 q 260 458 268 443 q 251 489 251 472 l 251 547 l 925 547 l 925 549 q 1033 593 989 549 q 1078 700 1078 638 q 1033 807 1078 763 q 925 851 989 851 l 925 853 l 314 853 q 269 871 288 853 q 251 915 251 889 l 251 974 l 917 974 q 925 974 921 974 q 1033 952 982 974 q 1119 894 1083 931 q 1178 806 1156 857 q 1200 700 1200 756 q 1121 508 1200 589 z "},"C":{"ha":1411,"x_min":250,"x_max":1161,"o":"m 738 853 q 479 745 586 853 q 372 487 372 638 q 479 229 372 336 q 738 122 586 122 l 1096 122 q 1141 103 1122 122 q 1160 58 1160 85 l 1160 0 l 738 0 q 494 65 606 0 q 317 242 382 131 q 251 487 251 354 q 317 731 251 619 q 494 908 382 843 q 738 974 606 974 l 1160 974 l 1160 915 q 1156 896 1160 906 q 1147 878 1153 886 q 1134 865 1142 871 q 1117 856 1126 858 q 1096 853 1107 853 l 738 853 z "},"c":{"ha":1411,"x_min":250,"x_max":1161,"o":"m 738 853 q 479 745 586 853 q 372 487 372 638 q 479 229 372 336 q 738 122 586 122 l 1096 122 q 1141 103 1122 122 q 1160 58 1160 85 l 1160 0 l 738 0 q 494 65 606 0 q 317 242 382 131 q 251 487 251 354 q 317 731 251 619 q 494 908 382 843 q 738 974 606 974 l 1160 974 l 1160 915 q 1156 896 1160 906 q 1147 878 1153 886 q 1134 865 1142 871 q 1117 856 1126 858 q 1096 853 1107 853 l 738 853 z "},"Ç":{"ha":1411,"x_min":250,"x_max":1161,"o":"m 738 853 q 479 745 586 853 q 372 487 372 638 q 479 229 372 336 q 738 122 586 122 l 1096 122 q 1141 103 1122 122 q 1160 58 1160 85 l 1160 0 l 738 0 q 494 65 606 0 q 317 242 382 131 q 251 487 251 354 q 317 731 251 619 q 494 908 382 843 q 738 974 606 974 l 1160 974 l 1160 915 q 1156 896 1160 906 q 1147 878 1153 886 q 1134 865 1142 871 q 1117 856 1126 858 q 1096 853 1107 853 l 738 853 z "},"ç":{"ha":1411,"x_min":250,"x_max":1161,"o":"m 738 853 q 479 745 586 853 q 372 487 372 638 q 479 229 372 336 q 738 122 586 122 l 1096 122 q 1141 103 1122 122 q 1160 58 1160 85 l 1160 0 l 738 0 q 494 65 606 0 q 317 242 382 131 q 251 487 251 354 q 317 731 251 619 q 494 908 382 843 q 738 974 606 974 l 1160 974 l 1160 915 q 1156 896 1160 906 q 1147 878 1153 886 q 1134 865 1142 871 q 1117 856 1126 858 q 1096 853 1107 853 l 738 853 z "},"D":{"ha":1393,"x_min":249,"x_max":1181,"o":"m 686 974 q 936 910 822 975 q 1115 732 1050 844 q 1181 488 1181 619 q 1142 297 1181 388 q 1038 142 1103 207 q 883 38 972 76 q 693 0 793 0 l 440 0 l 250 0 l 250 58 q 268 103 250 85 q 313 122 286 122 l 693 122 q 951 229 844 122 q 1058 487 1058 336 q 951 745 1058 638 q 693 853 844 853 l 693 853 l 313 853 q 281 861 296 853 q 258 884 267 869 q 250 915 250 899 l 250 974 l 686 974 z "},"d":{"ha":1393,"x_min":249,"x_max":1181,"o":"m 686 974 q 936 910 822 975 q 1115 732 1050 844 q 1181 488 1181 619 q 1142 297 1181 388 q 1038 142 1103 207 q 883 38 972 76 q 693 0 793 0 l 440 0 l 250 0 l 250 58 q 268 103 250 85 q 313 122 286 122 l 693 122 q 951 229 844 122 q 1058 487 1058 336 q 951 745 1058 638 q 693 853 844 853 l 693 853 l 313 853 q 281 861 296 853 q 258 884 267 869 q 250 915 250 899 l 250 974 l 686 974 z "},"E":{"ha":1428,"x_min":250,"x_max":1175,"o":"m 1110 122 q 1135 117 1124 122 q 1156 103 1147 111 q 1169 83 1164 94 q 1174 58 1174 71 l 1174 0 l 251 0 l 251 122 l 1110 122 m 1160 915 q 1151 884 1160 899 q 1128 861 1143 869 q 1096 853 1114 853 l 251 853 l 251 974 l 1160 974 l 1160 915 m 1075 489 q 1056 445 1075 464 q 1011 426 1038 426 l 251 426 l 251 547 l 1075 547 l 1075 489 z "},"e":{"ha":1428,"x_min":250,"x_max":1175,"o":"m 1110 122 q 1135 117 1124 122 q 1156 103 1147 111 q 1169 83 1164 94 q 1174 58 1174 71 l 1174 0 l 251 0 l 251 122 l 1110 122 m 1160 915 q 1151 884 1160 899 q 1128 861 1143 869 q 1096 853 1114 853 l 251 853 l 251 974 l 1160 974 l 1160 915 m 1075 489 q 1056 445 1075 464 q 1011 426 1038 426 l 251 426 l 251 547 l 1075 547 l 1075 489 z "},"È":{"ha":1428,"x_min":250,"x_max":1175,"o":"m 1110 122 q 1135 117 1124 122 q 1156 103 1147 111 q 1169 83 1164 94 q 1174 58 1174 71 l 1174 0 l 251 0 l 251 122 l 1110 122 m 1160 915 q 1151 884 1160 899 q 1128 861 1143 869 q 1096 853 1114 853 l 251 853 l 251 974 l 1160 974 l 1160 915 m 1075 489 q 1056 445 1075 464 q 1011 426 1038 426 l 251 426 l 251 547 l 1075 547 l 1075 489 z "},"É":{"ha":1428,"x_min":250,"x_max":1175,"o":"m 1110 122 q 1135 117 1124 122 q 1156 103 1147 111 q 1169 83 1164 94 q 1174 58 1174 71 l 1174 0 l 251 0 l 251 122 l 1110 122 m 1160 915 q 1151 884 1160 899 q 1128 861 1143 869 q 1096 853 1114 853 l 251 853 l 251 974 l 1160 974 l 1160 915 m 1075 489 q 1056 445 1075 464 q 1011 426 1038 426 l 251 426 l 251 547 l 1075 547 l 1075 489 z "},"Ê":{"ha":1428,"x_min":250,"x_max":1175,"o":"m 1110 122 q 1135 117 1124 122 q 1156 103 1147 111 q 1169 83 1164 94 q 1174 58 1174 71 l 1174 0 l 251 0 l 251 122 l 1110 122 m 1160 915 q 1151 884 1160 899 q 1128 861 1143 869 q 1096 853 1114 853 l 251 853 l 251 974 l 1160 974 l 1160 915 m 1075 489 q 1056 445 1075 464 q 1011 426 1038 426 l 251 426 l 251 547 l 1075 547 l 1075 489 z "},"Ë":{"ha":1428,"x_min":250,"x_max":1175,"o":"m 1110 122 q 1135 117 1124 122 q 1156 103 1147 111 q 1169 83 1164 94 q 1174 58 1174 71 l 1174 0 l 251 0 l 251 122 l 1110 122 m 1160 915 q 1151 884 1160 899 q 1128 861 1143 869 q 1096 853 1114 853 l 251 853 l 251 974 l 1160 974 l 1160 915 m 1075 489 q 1056 445 1075 464 q 1011 426 1038 426 l 251 426 l 251 547 l 1075 547 l 1075 489 z "},"è":{"ha":1428,"x_min":250,"x_max":1175,"o":"m 1110 122 q 1135 117 1124 122 q 1156 103 1147 111 q 1169 83 1164 94 q 1174 58 1174 71 l 1174 0 l 251 0 l 251 122 l 1110 122 m 1160 915 q 1151 884 1160 899 q 1128 861 1143 869 q 1096 853 1114 853 l 251 853 l 251 974 l 1160 974 l 1160 915 m 1075 489 q 1056 445 1075 464 q 1011 426 1038 426 l 251 426 l 251 547 l 1075 547 l 1075 489 z "},"é":{"ha":1428,"x_min":250,"x_max":1175,"o":"m 1110 122 q 1135 117 1124 122 q 1156 103 1147 111 q 1169 83 1164 94 q 1174 58 1174 71 l 1174 0 l 251 0 l 251 122 l 1110 122 m 1160 915 q 1151 884 1160 899 q 1128 861 1143 869 q 1096 853 1114 853 l 251 853 l 251 974 l 1160 974 l 1160 915 m 1075 489 q 1056 445 1075 464 q 1011 426 1038 426 l 251 426 l 251 547 l 1075 547 l 1075 489 z "},"ê":{"ha":1428,"x_min":250,"x_max":1175,"o":"m 1110 122 q 1135 117 1124 122 q 1156 103 1147 111 q 1169 83 1164 94 q 1174 58 1174 71 l 1174 0 l 251 0 l 251 122 l 1110 122 m 1160 915 q 1151 884 1160 899 q 1128 861 1143 869 q 1096 853 1114 853 l 251 853 l 251 974 l 1160 974 l 1160 915 m 1075 489 q 1056 445 1075 464 q 1011 426 1038 426 l 251 426 l 251 547 l 1075 547 l 1075 489 z "},"ë":{"ha":1428,"x_min":250,"x_max":1175,"o":"m 1110 122 q 1135 117 1124 122 q 1156 103 1147 111 q 1169 83 1164 94 q 1174 58 1174 71 l 1174 0 l 251 0 l 251 122 l 1110 122 m 1160 915 q 1151 884 1160 899 q 1128 861 1143 869 q 1096 853 1114 853 l 251 853 l 251 974 l 1160 974 l 1160 915 m 1075 489 q 1056 445 1075 464 q 1011 426 1038 426 l 251 426 l 251 547 l 1075 547 l 1075 489 z "},"F":{"ha":1414,"x_min":250,"x_max":1161,"o":"m 251 0 l 251 547 l 1075 547 l 1075 489 q 1056 445 1075 464 q 1011 426 1038 426 l 378 426 l 378 0 l 251 0 m 314 974 l 1160 974 l 1160 915 q 1141 871 1160 889 q 1096 853 1122 853 l 251 853 l 251 910 q 269 955 251 936 q 314 974 288 974 z "},"f":{"ha":1414,"x_min":250,"x_max":1161,"o":"m 251 0 l 251 547 l 1075 547 l 1075 489 q 1056 445 1075 464 q 1011 426 1038 426 l 378 426 l 378 0 l 251 0 m 314 974 l 1160 974 l 1160 915 q 1141 871 1160 889 q 1096 853 1122 853 l 251 853 l 251 910 q 269 955 251 936 q 314 974 288 974 z "},"G":{"ha":1464,"x_min":250,"x_max":1276,"o":"m 738 974 m 1213 426 l 1276 426 l 1276 0 l 1149 0 l 738 0 q 494 65 606 0 q 317 242 382 131 q 251 487 251 354 q 317 731 251 619 q 494 908 382 843 q 738 974 606 974 q 752 974 738 974 q 885 974 767 974 q 1217 974 1004 974 l 1217 915 q 1198 871 1217 889 q 1153 853 1179 853 l 738 853 q 479 745 586 853 q 372 487 372 638 q 479 229 372 336 q 738 122 586 122 l 1149 122 l 1149 363 q 1167 408 1149 389 q 1213 426 1186 426 z "},"g":{"ha":1464,"x_min":250,"x_max":1276,"o":"m 738 974 m 1213 426 l 1276 426 l 1276 0 l 1149 0 l 738 0 q 494 65 606 0 q 317 242 382 131 q 251 487 251 354 q 317 731 251 619 q 494 908 382 843 q 738 974 606 974 q 752 974 738 974 q 885 974 767 974 q 1217 974 1004 974 l 1217 915 q 1198 871 1217 889 q 1153 853 1179 853 l 738 853 q 479 745 586 853 q 372 487 372 638 q 479 229 372 336 q 738 122 586 122 l 1149 122 l 1149 363 q 1167 408 1149 389 q 1213 426 1186 426 z "},"H":{"ha":1317,"x_min":183,"x_max":1063,"o":"m 247 974 q 292 955 274 974 q 310 910 310 936 l 310 0 l 247 0 q 202 19 221 0 q 183 64 183 38 l 183 974 l 247 974 m 999 974 q 1043 955 1025 974 q 1061 910 1061 936 l 1061 0 l 999 0 q 966 8 981 0 q 943 31 951 17 q 935 64 935 46 l 935 488 l 624 488 q 592 496 607 488 q 569 519 578 504 q 561 550 561 533 l 561 608 l 935 608 l 935 974 l 999 974 z "},"h":{"ha":1317,"x_min":183,"x_max":1063,"o":"m 247 974 q 292 955 274 974 q 310 910 310 936 l 310 0 l 247 0 q 202 19 221 0 q 183 64 183 38 l 183 974 l 247 974 m 999 974 q 1043 955 1025 974 q 1061 910 1061 936 l 1061 0 l 999 0 q 966 8 981 0 q 943 31 951 17 q 935 64 935 46 l 935 488 l 624 488 q 592 496 607 488 q 569 519 578 504 q 561 550 561 533 l 561 608 l 935 608 l 935 974 l 999 974 z "},"I":{"ha":631,"x_min":250,"x_max":378,"o":"m 314 974 q 359 955 340 974 q 378 910 378 936 l 378 0 l 314 0 q 283 8 297 0 q 260 31 268 17 q 251 64 251 46 l 251 974 l 314 974 z "},"i":{"ha":631,"x_min":250,"x_max":378,"o":"m 314 974 q 359 955 340 974 q 378 910 378 936 l 378 0 l 314 0 q 283 8 297 0 q 260 31 268 17 q 251 64 251 46 l 251 974 l 314 974 z "},"Ì":{"ha":631,"x_min":250,"x_max":378,"o":"m 314 974 q 359 955 340 974 q 378 910 378 936 l 378 0 l 314 0 q 283 8 297 0 q 260 31 268 17 q 251 64 251 46 l 251 974 l 314 974 z "},"Í":{"ha":631,"x_min":250,"x_max":378,"o":"m 314 974 q 359 955 340 974 q 378 910 378 936 l 378 0 l 314 0 q 283 8 297 0 q 260 31 268 17 q 251 64 251 46 l 251 974 l 314 974 z "},"Î":{"ha":631,"x_min":250,"x_max":378,"o":"m 314 974 q 359 955 340 974 q 378 910 378 936 l 378 0 l 314 0 q 283 8 297 0 q 260 31 268 17 q 251 64 251 46 l 251 974 l 314 974 z "},"Ï":{"ha":631,"x_min":250,"x_max":378,"o":"m 314 974 q 359 955 340 974 q 378 910 378 936 l 378 0 l 314 0 q 283 8 297 0 q 260 31 268 17 q 251 64 251 46 l 251 974 l 314 974 z "},"ì":{"ha":631,"x_min":250,"x_max":378,"o":"m 314 974 q 359 955 340 974 q 378 910 378 936 l 378 0 l 314 0 q 283 8 297 0 q 260 31 268 17 q 251 64 251 46 l 251 974 l 314 974 z "},"í":{"ha":631,"x_min":250,"x_max":378,"o":"m 314 974 q 359 955 340 974 q 378 910 378 936 l 378 0 l 314 0 q 283 8 297 0 q 260 31 268 17 q 251 64 251 46 l 251 974 l 314 974 z "},"î":{"ha":631,"x_min":250,"x_max":378,"o":"m 314 974 q 359 955 340 974 q 378 910 378 936 l 378 0 l 314 0 q 283 8 297 0 q 260 31 268 17 q 251 64 251 46 l 251 974 l 314 974 z "},"ï":{"ha":631,"x_min":250,"x_max":378,"o":"m 314 974 q 359 955 340 974 q 378 910 378 936 l 378 0 l 314 0 q 283 8 297 0 q 260 31 268 17 q 251 64 251 46 l 251 974 l 314 974 z "},"J":{"ha":992,"x_min":250,"x_max":739,"o":"m 675 974 l 738 974 l 738 488 q 672 242 738 354 q 495 65 607 131 q 251 0 383 0 q 251 65 251 33 q 267 106 251 89 q 304 126 282 124 q 314 128 310 126 q 383 147 350 133 q 501 224 450 174 q 582 342 553 274 q 611 488 611 411 l 611 911 q 630 956 611 938 q 675 974 649 974 z "},"j":{"ha":992,"x_min":250,"x_max":739,"o":"m 675 974 l 738 974 l 738 488 q 672 242 738 354 q 495 65 607 131 q 251 0 383 0 q 251 65 251 33 q 267 106 251 89 q 304 126 282 124 q 314 128 310 126 q 383 147 350 133 q 501 224 450 174 q 582 342 553 274 q 611 488 611 411 l 611 911 q 630 956 611 938 q 675 974 649 974 z "},"K":{"ha":1340,"x_min":249,"x_max":1088,"o":"m 456 488 l 1086 0 l 939 0 q 835 36 881 0 l 250 488 l 835 939 q 938 974 881 974 l 961 974 l 1006 974 l 1086 974 l 456 488 z "},"k":{"ha":1340,"x_min":249,"x_max":1088,"o":"m 456 488 l 1086 0 l 939 0 q 835 36 881 0 l 250 488 l 835 939 q 938 974 881 974 l 961 974 l 1006 974 l 1086 974 l 456 488 z "},"L":{"ha":1249,"x_min":250,"x_max":996,"o":"m 932 122 q 977 103 958 122 q 996 58 996 85 l 996 0 l 732 0 q 490 67 601 1 q 315 244 379 132 q 251 488 251 356 l 251 974 l 314 974 q 359 956 340 974 q 378 911 378 938 l 378 488 q 483 228 378 335 q 738 122 588 122 l 738 122 l 932 122 z "},"l":{"ha":1249,"x_min":250,"x_max":996,"o":"m 932 122 q 977 103 958 122 q 996 58 996 85 l 996 0 l 732 0 q 490 67 601 1 q 315 244 379 132 q 251 488 251 356 l 251 974 l 314 974 q 359 956 340 974 q 378 911 378 938 l 378 488 q 483 228 378 335 q 738 122 588 122 l 738 122 l 932 122 z "},"M":{"ha":1385,"x_min":13,"x_max":1146,"o":"m 1079 974 q 1146 974 1111 974 l 1143 0 l 1079 0 q 1048 8 1063 0 q 1025 31 1033 17 q 1017 64 1017 46 l 1017 814 l 700 479 q 575 426 649 426 l 510 426 l 140 815 l 13 950 l 13 950 l 13 974 l 79 974 q 203 921 153 974 l 579 524 l 954 921 q 1079 974 1006 974 z "},"m":{"ha":1385,"x_min":13,"x_max":1146,"o":"m 1079 974 q 1146 974 1111 974 l 1143 0 l 1079 0 q 1048 8 1063 0 q 1025 31 1033 17 q 1017 64 1017 46 l 1017 814 l 700 479 q 575 426 649 426 l 510 426 l 140 815 l 13 950 l 13 950 l 13 974 l 79 974 q 203 921 153 974 l 579 524 l 954 921 q 1079 974 1006 974 z "},"N":{"ha":1382,"x_min":250,"x_max":1129,"o":"m 1065 974 l 1129 974 l 1129 0 l 981 0 l 378 813 l 378 490 q 359 445 378 464 q 314 426 340 426 l 250 426 l 250 974 l 258 974 l 399 974 l 1003 161 l 1003 910 q 1021 955 1003 936 q 1065 974 1039 974 z "},"n":{"ha":1382,"x_min":250,"x_max":1129,"o":"m 1065 974 l 1129 974 l 1129 0 l 981 0 l 378 813 l 378 490 q 359 445 378 464 q 314 426 340 426 l 250 426 l 250 974 l 258 974 l 399 974 l 1003 161 l 1003 910 q 1021 955 1003 936 q 1065 974 1039 974 z "},"Ñ":{"ha":1382,"x_min":250,"x_max":1129,"o":"m 1065 974 l 1129 974 l 1129 0 l 981 0 l 378 813 l 378 490 q 359 445 378 464 q 314 426 340 426 l 250 426 l 250 974 l 258 974 l 399 974 l 1003 161 l 1003 910 q 1021 955 1003 936 q 1065 974 1039 974 z "},"ñ":{"ha":1382,"x_min":250,"x_max":1129,"o":"m 1065 974 l 1129 974 l 1129 0 l 981 0 l 378 813 l 378 490 q 359 445 378 464 q 314 426 340 426 l 250 426 l 250 974 l 258 974 l 399 974 l 1003 161 l 1003 910 q 1021 955 1003 936 q 1065 974 1039 974 z "},"O":{"ha":1367,"x_min":194,"x_max":1171,"o":"m 438 908 q 494 941 438 908 q 683 974 550 974 q 927 908 815 974 q 1104 731 1039 843 q 1169 487 1169 619 q 1104 242 1169 354 q 927 65 1039 131 q 683 0 815 0 q 438 65 550 0 q 261 242 326 131 q 196 487 196 354 q 261 731 196 619 q 438 908 326 843 m 424 229 q 477 176 424 229 q 682 122 531 122 q 940 229 833 122 q 1047 487 1047 336 q 940 745 1047 638 q 682 853 833 853 q 424 745 531 853 q 317 487 317 638 q 424 229 317 336 z "},"o":{"ha":1367,"x_min":194,"x_max":1171,"o":"m 438 908 q 494 941 438 908 q 683 974 550 974 q 927 908 815 974 q 1104 731 1039 843 q 1169 487 1169 619 q 1104 242 1169 354 q 927 65 1039 131 q 683 0 815 0 q 438 65 550 0 q 261 242 326 131 q 196 487 196 354 q 261 731 196 619 q 438 908 326 843 m 424 229 q 477 176 424 229 q 682 122 531 122 q 940 229 833 122 q 1047 487 1047 336 q 940 745 1047 638 q 682 853 833 853 q 424 745 531 853 q 317 487 317 638 q 424 229 317 336 z "},"Ò":{"ha":1367,"x_min":194,"x_max":1171,"o":"m 438 908 q 494 941 438 908 q 683 974 550 974 q 927 908 815 974 q 1104 731 1039 843 q 1169 487 1169 619 q 1104 242 1169 354 q 927 65 1039 131 q 683 0 815 0 q 438 65 550 0 q 261 242 326 131 q 196 487 196 354 q 261 731 196 619 q 438 908 326 843 m 424 229 q 477 176 424 229 q 682 122 531 122 q 940 229 833 122 q 1047 487 1047 336 q 940 745 1047 638 q 682 853 833 853 q 424 745 531 853 q 317 487 317 638 q 424 229 317 336 z "},"Ó":{"ha":1367,"x_min":194,"x_max":1171,"o":"m 438 908 q 494 941 438 908 q 683 974 550 974 q 927 908 815 974 q 1104 731 1039 843 q 1169 487 1169 619 q 1104 242 1169 354 q 927 65 1039 131 q 683 0 815 0 q 438 65 550 0 q 261 242 326 131 q 196 487 196 354 q 261 731 196 619 q 438 908 326 843 m 424 229 q 477 176 424 229 q 682 122 531 122 q 940 229 833 122 q 1047 487 1047 336 q 940 745 1047 638 q 682 853 833 853 q 424 745 531 853 q 317 487 317 638 q 424 229 317 336 z "},"Ô":{"ha":1367,"x_min":194,"x_max":1171,"o":"m 438 908 q 494 941 438 908 q 683 974 550 974 q 927 908 815 974 q 1104 731 1039 843 q 1169 487 1169 619 q 1104 242 1169 354 q 927 65 1039 131 q 683 0 815 0 q 438 65 550 0 q 261 242 326 131 q 196 487 196 354 q 261 731 196 619 q 438 908 326 843 m 424 229 q 477 176 424 229 q 682 122 531 122 q 940 229 833 122 q 1047 487 1047 336 q 940 745 1047 638 q 682 853 833 853 q 424 745 531 853 q 317 487 317 638 q 424 229 317 336 z "},"Õ":{"ha":1367,"x_min":194,"x_max":1171,"o":"m 438 908 q 494 941 438 908 q 683 974 550 974 q 927 908 815 974 q 1104 731 1039 843 q 1169 487 1169 619 q 1104 242 1169 354 q 927 65 1039 131 q 683 0 815 0 q 438 65 550 0 q 261 242 326 131 q 196 487 196 354 q 261 731 196 619 q 438 908 326 843 m 424 229 q 477 176 424 229 q 682 122 531 122 q 940 229 833 122 q 1047 487 1047 336 q 940 745 1047 638 q 682 853 833 853 q 424 745 531 853 q 317 487 317 638 q 424 229 317 336 z "},"Ö":{"ha":1367,"x_min":194,"x_max":1171,"o":"m 438 908 q 494 941 438 908 q 683 974 550 974 q 927 908 815 974 q 1104 731 1039 843 q 1169 487 1169 619 q 1104 242 1169 354 q 927 65 1039 131 q 683 0 815 0 q 438 65 550 0 q 261 242 326 131 q 196 487 196 354 q 261 731 196 619 q 438 908 326 843 m 424 229 q 477 176 424 229 q 682 122 531 122 q 940 229 833 122 q 1047 487 1047 336 q 940 745 1047 638 q 682 853 833 853 q 424 745 531 853 q 317 487 317 638 q 424 229 317 336 z "},"Ø":{"ha":1367,"x_min":194,"x_max":1171,"o":"m 438 908 q 494 941 438 908 q 683 974 550 974 q 927 908 815 974 q 1104 731 1039 843 q 1169 487 1169 619 q 1104 242 1169 354 q 927 65 1039 131 q 683 0 815 0 q 438 65 550 0 q 261 242 326 131 q 196 487 196 354 q 261 731 196 619 q 438 908 326 843 m 424 229 q 477 176 424 229 q 682 122 531 122 q 940 229 833 122 q 1047 487 1047 336 q 940 745 1047 638 q 682 853 833 853 q 424 745 531 853 q 317 487 317 638 q 424 229 317 336 z "},"ò":{"ha":1367,"x_min":194,"x_max":1171,"o":"m 438 908 q 494 941 438 908 q 683 974 550 974 q 927 908 815 974 q 1104 731 1039 843 q 1169 487 1169 619 q 1104 242 1169 354 q 927 65 1039 131 q 683 0 815 0 q 438 65 550 0 q 261 242 326 131 q 196 487 196 354 q 261 731 196 619 q 438 908 326 843 m 424 229 q 477 176 424 229 q 682 122 531 122 q 940 229 833 122 q 1047 487 1047 336 q 940 745 1047 638 q 682 853 833 853 q 424 745 531 853 q 317 487 317 638 q 424 229 317 336 z "},"ó":{"ha":1367,"x_min":194,"x_max":1171,"o":"m 438 908 q 494 941 438 908 q 683 974 550 974 q 927 908 815 974 q 1104 731 1039 843 q 1169 487 1169 619 q 1104 242 1169 354 q 927 65 1039 131 q 683 0 815 0 q 438 65 550 0 q 261 242 326 131 q 196 487 196 354 q 261 731 196 619 q 438 908 326 843 m 424 229 q 477 176 424 229 q 682 122 531 122 q 940 229 833 122 q 1047 487 1047 336 q 940 745 1047 638 q 682 853 833 853 q 424 745 531 853 q 317 487 317 638 q 424 229 317 336 z "},"ô":{"ha":1367,"x_min":194,"x_max":1171,"o":"m 438 908 q 494 941 438 908 q 683 974 550 974 q 927 908 815 974 q 1104 731 1039 843 q 1169 487 1169 619 q 1104 242 1169 354 q 927 65 1039 131 q 683 0 815 0 q 438 65 550 0 q 261 242 326 131 q 196 487 196 354 q 261 731 196 619 q 438 908 326 843 m 424 229 q 477 176 424 229 q 682 122 531 122 q 940 229 833 122 q 1047 487 1047 336 q 940 745 1047 638 q 682 853 833 853 q 424 745 531 853 q 317 487 317 638 q 424 229 317 336 z "},"õ":{"ha":1367,"x_min":194,"x_max":1171,"o":"m 438 908 q 494 941 438 908 q 683 974 550 974 q 927 908 815 974 q 1104 731 1039 843 q 1169 487 1169 619 q 1104 242 1169 354 q 927 65 1039 131 q 683 0 815 0 q 438 65 550 0 q 261 242 326 131 q 196 487 196 354 q 261 731 196 619 q 438 908 326 843 m 424 229 q 477 176 424 229 q 682 122 531 122 q 940 229 833 122 q 1047 487 1047 336 q 940 745 1047 638 q 682 853 833 853 q 424 745 531 853 q 317 487 317 638 q 424 229 317 336 z "},"ö":{"ha":1367,"x_min":194,"x_max":1171,"o":"m 438 908 q 494 941 438 908 q 683 974 550 974 q 927 908 815 974 q 1104 731 1039 843 q 1169 487 1169 619 q 1104 242 1169 354 q 927 65 1039 131 q 683 0 815 0 q 438 65 550 0 q 261 242 326 131 q 196 487 196 354 q 261 731 196 619 q 438 908 326 843 m 424 229 q 477 176 424 229 q 682 122 531 122 q 940 229 833 122 q 1047 487 1047 336 q 940 745 1047 638 q 682 853 833 853 q 424 745 531 853 q 317 487 317 638 q 424 229 317 336 z "},"ø":{"ha":1367,"x_min":194,"x_max":1171,"o":"m 438 908 q 494 941 438 908 q 683 974 550 974 q 927 908 815 974 q 1104 731 1039 843 q 1169 487 1169 619 q 1104 242 1169 354 q 927 65 1039 131 q 683 0 815 0 q 438 65 550 0 q 261 242 326 131 q 196 487 196 354 q 261 731 196 619 q 438 908 326 843 m 424 229 q 477 176 424 229 q 682 122 531 122 q 940 229 833 122 q 1047 487 1047 336 q 940 745 1047 638 q 682 853 833 853 q 424 745 531 853 q 317 487 317 638 q 424 229 317 336 z "},"P":{"ha":1435,"x_min":250,"x_max":1182,"o":"m 907 974 q 1101 894 1021 974 q 1181 700 1181 814 q 1101 506 1181 586 q 907 426 1021 426 l 378 426 l 378 64 q 359 19 378 38 q 314 0 340 0 l 251 0 l 251 547 l 907 547 l 907 549 q 1014 593 969 549 q 1058 700 1058 638 q 1014 807 1058 763 q 907 851 969 851 l 907 853 l 338 853 q 276 878 301 853 q 251 939 251 903 l 251 974 l 899 974 q 907 974 903 974 z "},"p":{"ha":1435,"x_min":250,"x_max":1182,"o":"m 907 974 q 1101 894 1021 974 q 1181 700 1181 814 q 1101 506 1181 586 q 907 426 1021 426 l 378 426 l 378 64 q 359 19 378 38 q 314 0 340 0 l 251 0 l 251 547 l 907 547 l 907 549 q 1014 593 969 549 q 1058 700 1058 638 q 1014 807 1058 763 q 907 851 969 851 l 907 853 l 338 853 q 276 878 301 853 q 251 939 251 903 l 251 974 l 899 974 q 907 974 903 974 z "},"Q":{"ha":1479,"x_min":250,"x_max":1226,"o":"m 1163 122 q 1207 103 1189 122 q 1225 60 1225 85 l 1225 0 l 744 0 q 742 0 744 0 q 738 0 739 0 q 494 65 606 0 q 317 242 382 131 q 251 487 251 354 q 317 731 251 619 q 494 908 382 843 q 738 974 606 974 q 983 908 871 974 q 1160 731 1094 843 q 1225 488 1225 619 q 1221 425 1225 456 l 1165 425 q 1122 443 1140 425 q 1103 488 1103 461 q 996 745 1103 638 q 738 853 889 853 q 479 745 586 853 q 372 487 372 638 q 479 229 372 336 q 738 122 586 122 l 1163 122 z "},"q":{"ha":1479,"x_min":250,"x_max":1226,"o":"m 1163 122 q 1207 103 1189 122 q 1225 60 1225 85 l 1225 0 l 744 0 q 742 0 744 0 q 738 0 739 0 q 494 65 606 0 q 317 242 382 131 q 251 487 251 354 q 317 731 251 619 q 494 908 382 843 q 738 974 606 974 q 983 908 871 974 q 1160 731 1094 843 q 1225 488 1225 619 q 1221 425 1225 456 l 1165 425 q 1122 443 1140 425 q 1103 488 1103 461 q 996 745 1103 638 q 738 853 889 853 q 479 745 586 853 q 372 487 372 638 q 479 229 372 336 q 738 122 586 122 l 1163 122 z "},"R":{"ha":1439,"x_min":250,"x_max":1186,"o":"m 965 432 l 1185 0 l 1099 0 q 1021 47 1046 0 l 828 426 l 378 426 l 378 64 q 359 19 378 38 q 314 0 340 0 l 251 0 l 251 547 l 907 547 l 907 549 q 1014 593 969 549 q 1058 700 1058 638 q 1014 807 1058 763 q 907 851 969 851 l 907 853 l 315 853 q 270 872 289 853 q 251 917 251 890 l 251 974 l 899 974 q 907 974 903 974 q 1101 894 1021 974 q 1181 700 1181 814 q 1153 579 1181 636 q 1076 484 1125 522 q 965 432 1026 446 z "},"r":{"ha":1439,"x_min":250,"x_max":1186,"o":"m 965 432 l 1185 0 l 1099 0 q 1021 47 1046 0 l 828 426 l 378 426 l 378 64 q 359 19 378 38 q 314 0 340 0 l 251 0 l 251 547 l 907 547 l 907 549 q 1014 593 969 549 q 1058 700 1058 638 q 1014 807 1058 763 q 907 851 969 851 l 907 853 l 315 853 q 270 872 289 853 q 251 917 251 890 l 251 974 l 899 974 q 907 974 903 974 q 1101 894 1021 974 q 1181 700 1181 814 q 1153 579 1181 636 q 1076 484 1125 522 q 965 432 1026 446 z "},"S":{"ha":1426,"x_min":250,"x_max":1174,"o":"m 899 547 q 1092 467 1013 547 q 1172 273 1172 386 q 1092 79 1172 160 q 899 -1 1013 -1 l 268 0 l 264 0 l 264 58 q 283 103 264 85 q 328 122 301 122 l 889 122 l 908 122 q 1009 169 968 125 q 1050 274 1050 213 q 1006 381 1050 336 q 899 425 961 425 l 896 425 q 851 444 869 425 q 833 489 833 463 l 833 547 l 899 547 m 525 426 q 387 463 450 426 q 288 563 324 500 q 251 700 251 625 q 331 894 251 814 q 525 974 411 974 q 535 974 529 974 l 1133 974 l 1133 915 q 1128 891 1133 903 q 1115 871 1124 879 q 1095 858 1107 863 q 1071 853 1083 853 l 525 853 l 525 851 q 418 807 463 851 q 374 700 374 763 q 418 593 374 638 q 525 549 463 549 l 525 547 l 526 547 q 559 539 544 547 q 582 516 574 531 q 590 485 590 501 l 590 426 l 525 426 z "},"s":{"ha":1426,"x_min":250,"x_max":1174,"o":"m 899 547 q 1092 467 1013 547 q 1172 273 1172 386 q 1092 79 1172 160 q 899 -1 1013 -1 l 268 0 l 264 0 l 264 58 q 283 103 264 85 q 328 122 301 122 l 889 122 l 908 122 q 1009 169 968 125 q 1050 274 1050 213 q 1006 381 1050 336 q 899 425 961 425 l 896 425 q 851 444 869 425 q 833 489 833 463 l 833 547 l 899 547 m 525 426 q 387 463 450 426 q 288 563 324 500 q 251 700 251 625 q 331 894 251 814 q 525 974 411 974 q 535 974 529 974 l 1133 974 l 1133 915 q 1128 891 1133 903 q 1115 871 1124 879 q 1095 858 1107 863 q 1071 853 1083 853 l 525 853 l 525 851 q 418 807 463 851 q 374 700 374 763 q 418 593 374 638 q 525 549 463 549 l 525 547 l 526 547 q 559 539 544 547 q 582 516 574 531 q 590 485 590 501 l 590 426 l 525 426 z "},"T":{"ha":1381,"x_min":250,"x_max":1129,"o":"m 690 608 q 735 590 717 608 q 753 546 753 571 l 753 0 l 690 0 q 645 19 664 0 q 626 64 626 38 l 626 608 l 690 608 m 1065 974 q 1110 955 1092 974 q 1129 910 1129 936 l 1129 853 l 314 853 q 283 861 297 853 q 260 884 268 869 q 251 915 251 899 l 251 974 l 1065 974 z "},"t":{"ha":1381,"x_min":250,"x_max":1129,"o":"m 690 608 q 735 590 717 608 q 753 546 753 571 l 753 0 l 690 0 q 645 19 664 0 q 626 64 626 38 l 626 608 l 690 608 m 1065 974 q 1110 955 1092 974 q 1129 910 1129 936 l 1129 853 l 314 853 q 283 861 297 853 q 260 884 268 869 q 251 915 251 899 l 251 974 l 1065 974 z "},"U":{"ha":1479,"x_min":250,"x_max":1226,"o":"m 1225 478 q 1225 476 1225 478 q 1225 472 1225 474 q 1178 261 1225 360 q 1047 94 1131 163 q 860 0 964 26 l 860 75 q 901 146 860 124 q 1048 279 993 192 q 1103 472 1103 367 l 1103 974 l 1225 974 l 1225 478 m 574 146 q 617 75 617 124 l 617 0 q 354 172 457 42 q 251 472 251 303 q 251 476 251 474 q 251 478 251 478 l 251 974 l 372 974 l 372 472 q 428 279 372 367 q 574 146 483 192 z "},"u":{"ha":1479,"x_min":250,"x_max":1226,"o":"m 1225 478 q 1225 476 1225 478 q 1225 472 1225 474 q 1178 261 1225 360 q 1047 94 1131 163 q 860 0 964 26 l 860 75 q 901 146 860 124 q 1048 279 993 192 q 1103 472 1103 367 l 1103 974 l 1225 974 l 1225 478 m 574 146 q 617 75 617 124 l 617 0 q 354 172 457 42 q 251 472 251 303 q 251 476 251 474 q 251 478 251 478 l 251 974 l 372 974 l 372 472 q 428 279 372 367 q 574 146 483 192 z "},"Ù":{"ha":1479,"x_min":250,"x_max":1226,"o":"m 1225 478 q 1225 476 1225 478 q 1225 472 1225 474 q 1178 261 1225 360 q 1047 94 1131 163 q 860 0 964 26 l 860 75 q 901 146 860 124 q 1048 279 993 192 q 1103 472 1103 367 l 1103 974 l 1225 974 l 1225 478 m 574 146 q 617 75 617 124 l 617 0 q 354 172 457 42 q 251 472 251 303 q 251 476 251 474 q 251 478 251 478 l 251 974 l 372 974 l 372 472 q 428 279 372 367 q 574 146 483 192 z "},"Ú":{"ha":1479,"x_min":250,"x_max":1226,"o":"m 1225 478 q 1225 476 1225 478 q 1225 472 1225 474 q 1178 261 1225 360 q 1047 94 1131 163 q 860 0 964 26 l 860 75 q 901 146 860 124 q 1048 279 993 192 q 1103 472 1103 367 l 1103 974 l 1225 974 l 1225 478 m 574 146 q 617 75 617 124 l 617 0 q 354 172 457 42 q 251 472 251 303 q 251 476 251 474 q 251 478 251 478 l 251 974 l 372 974 l 372 472 q 428 279 372 367 q 574 146 483 192 z "},"Û":{"ha":1479,"x_min":250,"x_max":1226,"o":"m 1225 478 q 1225 476 1225 478 q 1225 472 1225 474 q 1178 261 1225 360 q 1047 94 1131 163 q 860 0 964 26 l 860 75 q 901 146 860 124 q 1048 279 993 192 q 1103 472 1103 367 l 1103 974 l 1225 974 l 1225 478 m 574 146 q 617 75 617 124 l 617 0 q 354 172 457 42 q 251 472 251 303 q 251 476 251 474 q 251 478 251 478 l 251 974 l 372 974 l 372 472 q 428 279 372 367 q 574 146 483 192 z "},"Ü":{"ha":1479,"x_min":250,"x_max":1226,"o":"m 1225 478 q 1225 476 1225 478 q 1225 472 1225 474 q 1178 261 1225 360 q 1047 94 1131 163 q 860 0 964 26 l 860 75 q 901 146 860 124 q 1048 279 993 192 q 1103 472 1103 367 l 1103 974 l 1225 974 l 1225 478 m 574 146 q 617 75 617 124 l 617 0 q 354 172 457 42 q 251 472 251 303 q 251 476 251 474 q 251 478 251 478 l 251 974 l 372 974 l 372 472 q 428 279 372 367 q 574 146 483 192 z "},"ù":{"ha":1479,"x_min":250,"x_max":1226,"o":"m 1225 478 q 1225 476 1225 478 q 1225 472 1225 474 q 1178 261 1225 360 q 1047 94 1131 163 q 860 0 964 26 l 860 75 q 901 146 860 124 q 1048 279 993 192 q 1103 472 1103 367 l 1103 974 l 1225 974 l 1225 478 m 574 146 q 617 75 617 124 l 617 0 q 354 172 457 42 q 251 472 251 303 q 251 476 251 474 q 251 478 251 478 l 251 974 l 372 974 l 372 472 q 428 279 372 367 q 574 146 483 192 z "},"ú":{"ha":1479,"x_min":250,"x_max":1226,"o":"m 1225 478 q 1225 476 1225 478 q 1225 472 1225 474 q 1178 261 1225 360 q 1047 94 1131 163 q 860 0 964 26 l 860 75 q 901 146 860 124 q 1048 279 993 192 q 1103 472 1103 367 l 1103 974 l 1225 974 l 1225 478 m 574 146 q 617 75 617 124 l 617 0 q 354 172 457 42 q 251 472 251 303 q 251 476 251 474 q 251 478 251 478 l 251 974 l 372 974 l 372 472 q 428 279 372 367 q 574 146 483 192 z "},"û":{"ha":1479,"x_min":250,"x_max":1226,"o":"m 1225 478 q 1225 476 1225 478 q 1225 472 1225 474 q 1178 261 1225 360 q 1047 94 1131 163 q 860 0 964 26 l 860 75 q 901 146 860 124 q 1048 279 993 192 q 1103 472 1103 367 l 1103 974 l 1225 974 l 1225 478 m 574 146 q 617 75 617 124 l 617 0 q 354 172 457 42 q 251 472 251 303 q 251 476 251 474 q 251 478 251 478 l 251 974 l 372 974 l 372 472 q 428 279 372 367 q 574 146 483 192 z "},"ü":{"ha":1479,"x_min":250,"x_max":1226,"o":"m 1225 478 q 1225 476 1225 478 q 1225 472 1225 474 q 1178 261 1225 360 q 1047 94 1131 163 q 860 0 964 26 l 860 75 q 901 146 860 124 q 1048 279 993 192 q 1103 472 1103 367 l 1103 974 l 1225 974 l 1225 478 m 574 146 q 617 75 617 124 l 617 0 q 354 172 457 42 q 251 472 251 303 q 251 476 251 474 q 251 478 251 478 l 251 974 l 372 974 l 372 472 q 428 279 372 367 q 574 146 483 192 z "},"V":{"ha":1571,"x_min":250,"x_max":1383,"o":"m 417 924 l 660 446 q 660 363 681 404 l 611 267 l 251 974 l 335 974 q 367 967 351 974 q 396 950 383 961 q 417 924 408 939 m 1300 974 l 1383 974 l 888 0 l 747 0 l 1218 924 q 1251 960 1229 947 q 1300 974 1274 974 z "},"v":{"ha":1571,"x_min":250,"x_max":1383,"o":"m 417 924 l 660 446 q 660 363 681 404 l 611 267 l 251 974 l 335 974 q 367 967 351 974 q 396 950 383 961 q 417 924 408 939 m 1300 974 l 1383 974 l 888 0 l 747 0 l 1218 924 q 1251 960 1229 947 q 1300 974 1274 974 z "},"W":{"ha":1571,"x_min":250,"x_max":1383,"o":"m 1319 974 l 1383 974 l 1383 0 l 1257 0 l 1243 0 l 817 836 l 390 0 l 253 0 l 251 0 l 253 4 l 253 974 l 317 974 q 362 955 343 974 q 381 910 381 936 l 381 254 l 726 933 q 793 974 747 974 l 888 974 l 1257 249 l 1257 910 q 1275 955 1257 936 q 1319 974 1293 974 z "},"w":{"ha":1571,"x_min":250,"x_max":1383,"o":"m 1319 974 l 1383 974 l 1383 0 l 1257 0 l 1243 0 l 817 836 l 390 0 l 253 0 l 251 0 l 253 4 l 253 974 l 317 974 q 362 955 343 974 q 381 910 381 936 l 381 254 l 726 933 q 793 974 747 974 l 888 974 l 1257 249 l 1257 910 q 1275 955 1257 936 q 1319 974 1293 974 z "},"X":{"ha":1628,"x_min":232,"x_max":1394,"o":"m 604 697 q 560 679 586 679 q 514 697 533 679 l 232 974 l 354 974 q 436 940 403 974 l 644 736 l 604 697 m 1394 974 l 899 488 l 1394 0 l 1274 0 q 1190 33 1225 0 l 813 404 l 436 33 q 353 0 401 0 l 232 0 l 460 224 q 1190 940 460 224 q 1272 974 1224 974 l 1394 974 z "},"x":{"ha":1628,"x_min":232,"x_max":1394,"o":"m 604 697 q 560 679 586 679 q 514 697 533 679 l 232 974 l 354 974 q 436 940 403 974 l 644 736 l 604 697 m 1394 974 l 899 488 l 1394 0 l 1274 0 q 1190 33 1225 0 l 813 404 l 436 33 q 353 0 401 0 l 232 0 l 460 224 q 1190 940 460 224 q 1272 974 1224 974 l 1394 974 z "},"Y":{"ha":1533,"x_min":183,"x_max":1346,"o":"m 306 974 q 388 940 353 974 l 599 733 l 564 699 q 514 679 543 679 q 464 699 485 679 l 183 974 l 306 974 m 1222 974 q 1269 974 1239 974 q 1344 974 1299 974 l 828 467 l 828 60 q 810 17 828 35 q 768 0 793 0 l 700 0 l 700 467 l 679 488 l 1142 940 q 1222 974 1175 974 z "},"y":{"ha":1533,"x_min":183,"x_max":1346,"o":"m 306 974 q 388 940 353 974 l 599 733 l 564 699 q 514 679 543 679 q 464 699 485 679 l 183 974 l 306 974 m 1222 974 q 1269 974 1239 974 q 1344 974 1299 974 l 828 467 l 828 60 q 810 17 828 35 q 768 0 793 0 l 700 0 l 700 467 l 679 488 l 1142 940 q 1222 974 1175 974 z "},"Ý":{"ha":1533,"x_min":183,"x_max":1346,"o":"m 306 974 q 388 940 353 974 l 599 733 l 564 699 q 514 679 543 679 q 464 699 485 679 l 183 974 l 306 974 m 1222 974 q 1269 974 1239 974 q 1344 974 1299 974 l 828 467 l 828 60 q 810 17 828 35 q 768 0 793 0 l 700 0 l 700 467 l 679 488 l 1142 940 q 1222 974 1175 974 z "},"ý":{"ha":1533,"x_min":183,"x_max":1346,"o":"m 306 974 q 388 940 353 974 l 599 733 l 564 699 q 514 679 543 679 q 464 699 485 679 l 183 974 l 306 974 m 1222 974 q 1269 974 1239 974 q 1344 974 1299 974 l 828 467 l 828 60 q 810 17 828 35 q 768 0 793 0 l 700 0 l 700 467 l 679 488 l 1142 940 q 1222 974 1175 974 z "},"ÿ":{"ha":1533,"x_min":183,"x_max":1346,"o":"m 306 974 q 388 940 353 974 l 599 733 l 564 699 q 514 679 543 679 q 464 699 485 679 l 183 974 l 306 974 m 1222 974 q 1269 974 1239 974 q 1344 974 1299 974 l 828 467 l 828 60 q 810 17 828 35 q 768 0 793 0 l 700 0 l 700 467 l 679 488 l 1142 940 q 1222 974 1175 974 z "},"Ÿ":{"ha":1533,"x_min":183,"x_max":1346,"o":"m 306 974 q 388 940 353 974 l 599 733 l 564 699 q 514 679 543 679 q 464 699 485 679 l 183 974 l 306 974 m 1222 974 q 1269 974 1239 974 q 1344 974 1299 974 l 828 467 l 828 60 q 810 17 828 35 q 768 0 793 0 l 700 0 l 700 467 l 679 488 l 1142 940 q 1222 974 1175 974 z "},"Z":{"ha":1381,"x_min":249,"x_max":1128,"o":"m 1064 122 q 1109 103 1090 122 q 1128 58 1128 85 l 1128 0 l 250 0 l 250 56 q 296 169 250 122 l 683 567 q 790 613 726 613 l 893 613 q 415 122 833 550 l 1064 122 m 1065 974 q 1097 965 1082 974 q 1119 942 1111 957 q 1128 911 1128 928 l 1128 853 l 313 853 q 268 871 286 853 q 250 915 250 889 l 250 974 l 1065 974 z "},"z":{"ha":1381,"x_min":249,"x_max":1128,"o":"m 1064 122 q 1109 103 1090 122 q 1128 58 1128 85 l 1128 0 l 250 0 l 250 56 q 296 169 250 122 l 683 567 q 790 613 726 613 l 893 613 q 415 122 833 550 l 1064 122 m 1065 974 q 1097 965 1082 974 q 1119 942 1111 957 q 1128 911 1128 928 l 1128 853 l 313 853 q 268 871 286 853 q 250 915 250 889 l 250 974 l 1065 974 z "}," ":{"ha":846,"x_min":0,"x_max":0,"o":""},"­":{"ha":417,"x_min":0,"x_max":0,"o":""}}}
